<svg xmlns="http://www.w3.org/2000/svg" xmlns:xlink="http://www.w3.org/1999/xlink" width="238" zoomAndPan="magnify" viewBox="0 0 178.5 249.749984" height="333" preserveAspectRatio="xMidYMid meet" version="1.0"><defs><clipPath id="82fb81a86b"><path d="M 0 0.222656 L 178 0.222656 L 178 249.277344 L 0 249.277344 Z M 0 0.222656 " clip-rule="nonzero"/></clipPath><clipPath id="fce6299d25"><path d="M 17.808594 22.027344 L 164.398438 22.027344 L 164.398438 198.53125 L 17.808594 198.53125 Z M 17.808594 22.027344 " clip-rule="nonzero"/></clipPath><clipPath id="d7c7b025f9"><path d="M 64.136719 95.476562 L 114.246094 95.476562 L 114.246094 145.585938 L 64.136719 145.585938 Z M 64.136719 95.476562 " clip-rule="nonzero"/></clipPath><clipPath id="7c563bdc2c"><path d="M 70.910156 134.382812 L 121.019531 134.382812 L 121.019531 184.492188 L 70.910156 184.492188 Z M 70.910156 134.382812 " clip-rule="nonzero"/></clipPath><clipPath id="5e83b300cf"><path d="M 36.785156 134.382812 L 86.894531 134.382812 L 86.894531 184.492188 L 36.785156 184.492188 Z M 36.785156 134.382812 " clip-rule="nonzero"/></clipPath><clipPath id="bdf96cb708"><path d="M 95.816406 140.832031 L 145.925781 140.832031 L 145.925781 190.941406 L 95.816406 190.941406 Z M 95.816406 140.832031 " clip-rule="nonzero"/></clipPath><clipPath id="b7dfd03211"><path d="M 53.230469 137.554688 L 113.8125 137.554688 L 113.8125 198.132812 L 53.230469 198.132812 Z M 53.230469 137.554688 " clip-rule="nonzero"/></clipPath><clipPath id="494e083838"><path d="M 53.523438 124.601562 L 129.0625 124.601562 L 129.0625 200.136719 L 53.523438 200.136719 Z M 53.523438 124.601562 " clip-rule="nonzero"/></clipPath></defs><g clip-path="url(#82fb81a86b)"></g><g clip-path="url(#fce6299d25)"><path fill="#ffffff" d="M 17.808594 136.054688 C 17.808594 119.324219 22.320312 105.757812 29.535156 95.355469 C 29.535156 115.929688 34.496094 123.167969 45.320312 123.167969 C 52.539062 123.167969 59.980469 117.738281 59.980469 108.46875 C 59.980469 100.101562 54.34375 84.953125 54.34375 68.671875 C 54.34375 52.390625 59.753906 34.980469 81.855469 22.09375 C 76.894531 35.207031 74.867188 46.285156 74.867188 55.332031 C 74.867188 79.300781 89.300781 90.152344 102.152344 90.152344 C 112.527344 90.152344 123.351562 83.371094 123.351562 63.699219 C 130.34375 71.386719 133.5 80.203125 133.5 89.023438 C 133.5 103.042969 125.832031 115.480469 125.832031 126.785156 C 125.832031 136.054688 133.277344 141.484375 140.492188 141.484375 C 153.347656 141.484375 157.179688 129.949219 157.179688 110.957031 C 161.015625 117.515625 164.398438 130.402344 164.398438 141.484375 C 164.398438 174.496094 133.277344 198.464844 98.546875 198.464844 C 127.863281 187.382812 133.277344 172.6875 133.277344 156.179688 C 126.058594 169.070312 118.617188 170.878906 115.007812 170.878906 C 92.90625 170.878906 116.8125 128.59375 78.25 99.199219 C 84.5625 112.765625 87.042969 124.523438 87.042969 134.019531 C 87.042969 154.371094 75.992188 165.449219 65.394531 165.449219 C 56.371094 165.449219 47.351562 158.214844 43.742188 142.839844 C 43.742188 164.320312 50.058594 184.671875 78.25 198.464844 C 34.273438 191.230469 17.808594 163.640625 17.808594 136.054688 Z M 17.808594 136.054688 " fill-opacity="1" fill-rule="nonzero"/></g><g clip-path="url(#d7c7b025f9)"><path fill="#ffffff" d="M 114.246094 120.53125 C 114.246094 121.351562 114.207031 122.167969 114.125 122.984375 C 114.042969 123.800781 113.925781 124.613281 113.765625 125.417969 C 113.605469 126.222656 113.40625 127.019531 113.167969 127.804688 C 112.929688 128.589844 112.652344 129.359375 112.339844 130.117188 C 112.023438 130.875 111.675781 131.617188 111.289062 132.339844 C 110.902344 133.0625 110.480469 133.765625 110.023438 134.449219 C 109.566406 135.132812 109.078125 135.789062 108.558594 136.425781 C 108.039062 137.058594 107.488281 137.667969 106.90625 138.246094 C 106.328125 138.828125 105.71875 139.375 105.085938 139.898438 C 104.453125 140.417969 103.792969 140.90625 103.109375 141.363281 C 102.429688 141.816406 101.726562 142.238281 101 142.625 C 100.277344 143.011719 99.539062 143.363281 98.777344 143.675781 C 98.019531 143.992188 97.25 144.269531 96.464844 144.503906 C 95.679688 144.742188 94.882812 144.941406 94.078125 145.101562 C 93.273438 145.261719 92.464844 145.382812 91.648438 145.464844 C 90.832031 145.542969 90.011719 145.585938 89.191406 145.585938 C 88.371094 145.585938 87.550781 145.542969 86.734375 145.464844 C 85.917969 145.382812 85.109375 145.261719 84.304688 145.101562 C 83.5 144.941406 82.703125 144.742188 81.917969 144.503906 C 81.132812 144.269531 80.359375 143.992188 79.601562 143.675781 C 78.84375 143.363281 78.105469 143.011719 77.378906 142.625 C 76.65625 142.238281 75.953125 141.816406 75.269531 141.363281 C 74.589844 140.90625 73.929688 140.417969 73.296875 139.898438 C 72.664062 139.375 72.054688 138.828125 71.476562 138.246094 C 70.894531 137.667969 70.34375 137.058594 69.824219 136.425781 C 69.304688 135.789062 68.816406 135.132812 68.359375 134.449219 C 67.902344 133.765625 67.480469 133.0625 67.09375 132.339844 C 66.707031 131.617188 66.359375 130.875 66.042969 130.117188 C 65.730469 129.359375 65.453125 128.589844 65.214844 127.804688 C 64.976562 127.019531 64.777344 126.222656 64.617188 125.417969 C 64.457031 124.613281 64.335938 123.800781 64.257812 122.984375 C 64.175781 122.167969 64.136719 121.351562 64.136719 120.53125 C 64.136719 119.710938 64.175781 118.890625 64.257812 118.074219 C 64.335938 117.257812 64.457031 116.445312 64.617188 115.640625 C 64.777344 114.835938 64.976562 114.042969 65.214844 113.257812 C 65.453125 112.472656 65.730469 111.699219 66.042969 110.941406 C 66.359375 110.183594 66.707031 109.441406 67.09375 108.71875 C 67.480469 107.996094 67.902344 107.292969 68.359375 106.609375 C 68.816406 105.929688 69.304688 105.269531 69.824219 104.636719 C 70.34375 104 70.894531 103.394531 71.476562 102.8125 C 72.054688 102.234375 72.664062 101.683594 73.296875 101.164062 C 73.929688 100.640625 74.589844 100.152344 75.269531 99.699219 C 75.953125 99.242188 76.65625 98.820312 77.378906 98.433594 C 78.105469 98.046875 78.84375 97.695312 79.601562 97.382812 C 80.359375 97.066406 81.132812 96.792969 81.917969 96.554688 C 82.703125 96.316406 83.5 96.117188 84.304688 95.957031 C 85.109375 95.796875 85.917969 95.675781 86.734375 95.59375 C 87.550781 95.515625 88.371094 95.476562 89.191406 95.476562 C 90.011719 95.476562 90.832031 95.515625 91.648438 95.59375 C 92.464844 95.675781 93.273438 95.796875 94.078125 95.957031 C 94.882812 96.117188 95.679688 96.316406 96.464844 96.554688 C 97.25 96.792969 98.019531 97.066406 98.777344 97.382812 C 99.539062 97.695312 100.277344 98.046875 101 98.433594 C 101.726562 98.820312 102.429688 99.242188 103.109375 99.699219 C 103.792969 100.152344 104.453125 100.640625 105.085938 101.164062 C 105.71875 101.683594 106.328125 102.234375 106.90625 102.8125 C 107.488281 103.394531 108.039062 104 108.558594 104.636719 C 109.078125 105.269531 109.566406 105.929688 110.023438 106.609375 C 110.480469 107.292969 110.902344 107.996094 111.289062 108.71875 C 111.675781 109.441406 112.023438 110.183594 112.339844 110.941406 C 112.652344 111.699219 112.929688 112.472656 113.167969 113.257812 C 113.40625 114.042969 113.605469 114.835938 113.765625 115.640625 C 113.925781 116.445312 114.042969 117.257812 114.125 118.074219 C 114.207031 118.890625 114.246094 119.710938 114.246094 120.53125 Z M 114.246094 120.53125 " fill-opacity="1" fill-rule="nonzero"/></g><g clip-path="url(#7c563bdc2c)"><path fill="#ffffff" d="M 121.019531 159.4375 C 121.019531 160.257812 120.980469 161.074219 120.898438 161.890625 C 120.816406 162.710938 120.699219 163.519531 120.539062 164.324219 C 120.378906 165.128906 120.179688 165.925781 119.941406 166.710938 C 119.703125 167.496094 119.425781 168.265625 119.113281 169.023438 C 118.796875 169.78125 118.449219 170.523438 118.0625 171.246094 C 117.675781 171.972656 117.253906 172.675781 116.796875 173.355469 C 116.339844 174.039062 115.851562 174.695312 115.332031 175.332031 C 114.8125 175.964844 114.261719 176.574219 113.679688 177.152344 C 113.101562 177.734375 112.492188 178.285156 111.859375 178.804688 C 111.226562 179.324219 110.566406 179.8125 109.882812 180.269531 C 109.203125 180.726562 108.5 181.144531 107.773438 181.53125 C 107.050781 181.917969 106.308594 182.269531 105.550781 182.585938 C 104.792969 182.898438 104.023438 183.175781 103.238281 183.414062 C 102.453125 183.652344 101.65625 183.851562 100.851562 184.011719 C 100.046875 184.171875 99.238281 184.289062 98.421875 184.371094 C 97.605469 184.453125 96.785156 184.492188 95.964844 184.492188 C 95.144531 184.492188 94.324219 184.453125 93.507812 184.371094 C 92.691406 184.289062 91.882812 184.171875 91.078125 184.011719 C 90.273438 183.851562 89.476562 183.652344 88.691406 183.414062 C 87.90625 183.175781 87.132812 182.898438 86.375 182.585938 C 85.617188 182.269531 84.878906 181.917969 84.152344 181.53125 C 83.429688 181.144531 82.726562 180.726562 82.042969 180.269531 C 81.363281 179.8125 80.703125 179.324219 80.070312 178.804688 C 79.433594 178.285156 78.828125 177.734375 78.246094 177.152344 C 77.667969 176.574219 77.117188 175.964844 76.597656 175.332031 C 76.074219 174.695312 75.589844 174.039062 75.132812 173.355469 C 74.675781 172.675781 74.253906 171.972656 73.867188 171.246094 C 73.480469 170.523438 73.128906 169.78125 72.816406 169.023438 C 72.503906 168.265625 72.226562 167.496094 71.988281 166.710938 C 71.75 165.925781 71.550781 165.128906 71.390625 164.324219 C 71.230469 163.519531 71.109375 162.710938 71.03125 161.890625 C 70.949219 161.074219 70.910156 160.257812 70.910156 159.4375 C 70.910156 158.617188 70.949219 157.796875 71.03125 156.980469 C 71.109375 156.164062 71.230469 155.351562 71.390625 154.546875 C 71.550781 153.742188 71.75 152.949219 71.988281 152.164062 C 72.226562 151.378906 72.503906 150.605469 72.816406 149.847656 C 73.128906 149.089844 73.480469 148.347656 73.867188 147.625 C 74.253906 146.902344 74.675781 146.199219 75.132812 145.515625 C 75.589844 144.835938 76.074219 144.175781 76.597656 143.542969 C 77.117188 142.90625 77.667969 142.300781 78.246094 141.71875 C 78.828125 141.140625 79.433594 140.589844 80.070312 140.070312 C 80.703125 139.546875 81.363281 139.058594 82.042969 138.605469 C 82.726562 138.148438 83.429688 137.726562 84.152344 137.339844 C 84.878906 136.953125 85.617188 136.601562 86.375 136.289062 C 87.132812 135.976562 87.90625 135.699219 88.691406 135.460938 C 89.476562 135.222656 90.273438 135.023438 91.078125 134.863281 C 91.882812 134.703125 92.691406 134.582031 93.507812 134.503906 C 94.324219 134.421875 95.144531 134.382812 95.964844 134.382812 C 96.785156 134.382812 97.605469 134.421875 98.421875 134.503906 C 99.238281 134.582031 100.046875 134.703125 100.851562 134.863281 C 101.65625 135.023438 102.453125 135.222656 103.238281 135.460938 C 104.023438 135.699219 104.792969 135.976562 105.550781 136.289062 C 106.308594 136.601562 107.050781 136.953125 107.773438 137.339844 C 108.5 137.726562 109.203125 138.148438 109.882812 138.605469 C 110.566406 139.058594 111.226562 139.546875 111.859375 140.070312 C 112.492188 140.589844 113.101562 141.140625 113.679688 141.71875 C 114.261719 142.300781 114.8125 142.90625 115.332031 143.542969 C 115.851562 144.175781 116.339844 144.835938 116.796875 145.515625 C 117.253906 146.199219 117.675781 146.902344 118.0625 147.625 C 118.449219 148.347656 118.796875 149.089844 119.113281 149.847656 C 119.425781 150.605469 119.703125 151.378906 119.941406 152.164062 C 120.179688 152.949219 120.378906 153.742188 120.539062 154.546875 C 120.699219 155.351562 120.816406 156.164062 120.898438 156.980469 C 120.980469 157.796875 121.019531 158.617188 121.019531 159.4375 Z M 121.019531 159.4375 " fill-opacity="1" fill-rule="nonzero"/></g><g clip-path="url(#5e83b300cf)"><path fill="#ffffff" d="M 86.894531 159.4375 C 86.894531 160.257812 86.855469 161.074219 86.773438 161.890625 C 86.695312 162.710938 86.574219 163.519531 86.414062 164.324219 C 86.253906 165.128906 86.054688 165.925781 85.816406 166.710938 C 85.578125 167.496094 85.300781 168.265625 84.988281 169.023438 C 84.671875 169.78125 84.324219 170.523438 83.9375 171.246094 C 83.550781 171.972656 83.128906 172.675781 82.671875 173.355469 C 82.214844 174.039062 81.726562 174.695312 81.207031 175.332031 C 80.6875 175.964844 80.136719 176.574219 79.554688 177.152344 C 78.976562 177.734375 78.367188 178.285156 77.734375 178.804688 C 77.101562 179.324219 76.441406 179.8125 75.761719 180.269531 C 75.078125 180.726562 74.375 181.144531 73.652344 181.53125 C 72.925781 181.917969 72.1875 182.269531 71.429688 182.585938 C 70.671875 182.898438 69.898438 183.175781 69.113281 183.414062 C 68.328125 183.652344 67.53125 183.851562 66.726562 184.011719 C 65.921875 184.171875 65.113281 184.289062 64.296875 184.371094 C 63.480469 184.453125 62.660156 184.492188 61.839844 184.492188 C 61.019531 184.492188 60.199219 184.453125 59.382812 184.371094 C 58.566406 184.289062 57.757812 184.171875 56.953125 184.011719 C 56.148438 183.851562 55.351562 183.652344 54.566406 183.414062 C 53.78125 183.175781 53.011719 182.898438 52.253906 182.585938 C 51.492188 182.269531 50.753906 181.917969 50.03125 181.53125 C 49.304688 181.144531 48.601562 180.726562 47.921875 180.269531 C 47.238281 179.8125 46.578125 179.324219 45.945312 178.804688 C 45.3125 178.285156 44.703125 177.734375 44.125 177.152344 C 43.542969 176.574219 42.992188 175.964844 42.472656 175.332031 C 41.953125 174.695312 41.464844 174.039062 41.007812 173.355469 C 40.550781 172.675781 40.128906 171.972656 39.742188 171.246094 C 39.355469 170.523438 39.007812 169.78125 38.691406 169.023438 C 38.378906 168.265625 38.101562 167.496094 37.863281 166.710938 C 37.625 165.925781 37.425781 165.128906 37.265625 164.324219 C 37.105469 163.519531 36.988281 162.710938 36.90625 161.890625 C 36.824219 161.074219 36.785156 160.257812 36.785156 159.4375 C 36.785156 158.617188 36.824219 157.796875 36.90625 156.980469 C 36.988281 156.164062 37.105469 155.351562 37.265625 154.546875 C 37.425781 153.742188 37.625 152.949219 37.863281 152.164062 C 38.101562 151.378906 38.378906 150.605469 38.691406 149.847656 C 39.007812 149.089844 39.355469 148.347656 39.742188 147.625 C 40.128906 146.902344 40.550781 146.199219 41.007812 145.515625 C 41.464844 144.835938 41.953125 144.175781 42.472656 143.542969 C 42.992188 142.90625 43.542969 142.300781 44.125 141.71875 C 44.703125 141.140625 45.3125 140.589844 45.945312 140.070312 C 46.578125 139.546875 47.238281 139.058594 47.921875 138.605469 C 48.601562 138.148438 49.304688 137.726562 50.03125 137.339844 C 50.753906 136.953125 51.492188 136.601562 52.253906 136.289062 C 53.011719 135.976562 53.78125 135.699219 54.566406 135.460938 C 55.351562 135.222656 56.148438 135.023438 56.953125 134.863281 C 57.757812 134.703125 58.566406 134.582031 59.382812 134.503906 C 60.199219 134.421875 61.019531 134.382812 61.839844 134.382812 C 62.660156 134.382812 63.480469 134.421875 64.296875 134.503906 C 65.113281 134.582031 65.921875 134.703125 66.726562 134.863281 C 67.53125 135.023438 68.328125 135.222656 69.113281 135.460938 C 69.898438 135.699219 70.671875 135.976562 71.429688 136.289062 C 72.1875 136.601562 72.925781 136.953125 73.652344 137.339844 C 74.375 137.726562 75.078125 138.148438 75.761719 138.605469 C 76.441406 139.058594 77.101562 139.546875 77.734375 140.070312 C 78.367188 140.589844 78.976562 141.140625 79.554688 141.71875 C 80.136719 142.300781 80.6875 142.90625 81.207031 143.542969 C 81.726562 144.175781 82.214844 144.835938 82.671875 145.515625 C 83.128906 146.199219 83.550781 146.902344 83.9375 147.625 C 84.324219 148.347656 84.671875 149.089844 84.988281 149.847656 C 85.300781 150.605469 85.578125 151.378906 85.816406 152.164062 C 86.054688 152.949219 86.253906 153.742188 86.414062 154.546875 C 86.574219 155.351562 86.695312 156.164062 86.773438 156.980469 C 86.855469 157.796875 86.894531 158.617188 86.894531 159.4375 Z M 86.894531 159.4375 " fill-opacity="1" fill-rule="nonzero"/></g><g clip-path="url(#bdf96cb708)"><path fill="#ffffff" d="M 145.925781 165.886719 C 145.925781 166.707031 145.882812 167.523438 145.804688 168.339844 C 145.722656 169.15625 145.601562 169.96875 145.441406 170.773438 C 145.285156 171.578125 145.085938 172.371094 144.847656 173.160156 C 144.609375 173.945312 144.332031 174.714844 144.015625 175.472656 C 143.703125 176.230469 143.351562 176.972656 142.964844 177.695312 C 142.578125 178.417969 142.15625 179.121094 141.703125 179.804688 C 141.246094 180.488281 140.757812 181.144531 140.238281 181.78125 C 139.71875 182.414062 139.167969 183.019531 138.585938 183.601562 C 138.007812 184.183594 137.398438 184.730469 136.765625 185.253906 C 136.128906 185.773438 135.472656 186.261719 134.789062 186.71875 C 134.105469 187.171875 133.40625 187.59375 132.679688 187.980469 C 131.957031 188.367188 131.214844 188.71875 130.457031 189.03125 C 129.699219 189.347656 128.929688 189.621094 128.144531 189.859375 C 127.359375 190.097656 126.5625 190.296875 125.757812 190.457031 C 124.953125 190.617188 124.140625 190.738281 123.324219 190.820312 C 122.507812 190.898438 121.691406 190.941406 120.871094 190.941406 C 120.050781 190.941406 119.230469 190.898438 118.414062 190.820312 C 117.597656 190.738281 116.785156 190.617188 115.980469 190.457031 C 115.175781 190.296875 114.382812 190.097656 113.597656 189.859375 C 112.8125 189.621094 112.039062 189.347656 111.28125 189.03125 C 110.523438 188.71875 109.78125 188.367188 109.058594 187.980469 C 108.335938 187.59375 107.632812 187.171875 106.949219 186.71875 C 106.269531 186.261719 105.609375 185.773438 104.976562 185.253906 C 104.339844 184.730469 103.734375 184.183594 103.152344 183.601562 C 102.574219 183.019531 102.023438 182.414062 101.503906 181.78125 C 100.980469 181.144531 100.492188 180.488281 100.039062 179.804688 C 99.582031 179.121094 99.160156 178.417969 98.773438 177.695312 C 98.386719 176.972656 98.035156 176.230469 97.722656 175.472656 C 97.410156 174.714844 97.132812 173.945312 96.894531 173.160156 C 96.65625 172.371094 96.457031 171.578125 96.296875 170.773438 C 96.136719 169.96875 96.015625 169.15625 95.9375 168.339844 C 95.855469 167.523438 95.816406 166.707031 95.816406 165.886719 C 95.816406 165.066406 95.855469 164.246094 95.9375 163.429688 C 96.015625 162.613281 96.136719 161.800781 96.296875 160.996094 C 96.457031 160.191406 96.65625 159.398438 96.894531 158.613281 C 97.132812 157.828125 97.410156 157.054688 97.722656 156.296875 C 98.035156 155.539062 98.386719 154.796875 98.773438 154.074219 C 99.160156 153.351562 99.582031 152.648438 100.039062 151.964844 C 100.492188 151.285156 100.980469 150.625 101.503906 149.992188 C 102.023438 149.355469 102.574219 148.75 103.152344 148.167969 C 103.734375 147.589844 104.339844 147.039062 104.976562 146.515625 C 105.609375 145.996094 106.269531 145.507812 106.949219 145.054688 C 107.632812 144.597656 108.335938 144.175781 109.058594 143.789062 C 109.78125 143.402344 110.523438 143.050781 111.28125 142.738281 C 112.039062 142.421875 112.8125 142.148438 113.597656 141.910156 C 114.382812 141.671875 115.175781 141.472656 115.980469 141.3125 C 116.785156 141.152344 117.597656 141.03125 118.414062 140.949219 C 119.230469 140.871094 120.050781 140.832031 120.871094 140.832031 C 121.691406 140.832031 122.507812 140.871094 123.324219 140.949219 C 124.140625 141.03125 124.953125 141.152344 125.757812 141.3125 C 126.5625 141.472656 127.359375 141.671875 128.144531 141.910156 C 128.929688 142.148438 129.699219 142.421875 130.457031 142.738281 C 131.214844 143.050781 131.957031 143.402344 132.679688 143.789062 C 133.40625 144.175781 134.105469 144.597656 134.789062 145.054688 C 135.472656 145.507812 136.128906 145.996094 136.765625 146.515625 C 137.398438 147.039062 138.007812 147.589844 138.585938 148.167969 C 139.167969 148.75 139.71875 149.355469 140.238281 149.992188 C 140.757812 150.625 141.246094 151.285156 141.703125 151.964844 C 142.15625 152.648438 142.578125 153.351562 142.964844 154.074219 C 143.351562 154.796875 143.703125 155.539062 144.015625 156.296875 C 144.332031 157.054688 144.609375 157.828125 144.847656 158.613281 C 145.085938 159.398438 145.285156 160.191406 145.441406 160.996094 C 145.601562 161.800781 145.722656 162.613281 145.804688 163.429688 C 145.882812 164.246094 145.925781 165.066406 145.925781 165.886719 Z M 145.925781 165.886719 " fill-opacity="1" fill-rule="nonzero"/></g><g clip-path="url(#b7dfd03211)"><path fill="#ffffff" d="M 113.8125 167.84375 C 113.8125 168.835938 113.761719 169.824219 113.667969 170.8125 C 113.570312 171.800781 113.421875 172.78125 113.230469 173.753906 C 113.035156 174.726562 112.796875 175.6875 112.507812 176.636719 C 112.21875 177.585938 111.886719 178.519531 111.507812 179.433594 C 111.125 180.351562 110.703125 181.246094 110.234375 182.121094 C 109.769531 182.996094 109.257812 183.847656 108.707031 184.671875 C 108.15625 185.496094 107.566406 186.292969 106.9375 187.058594 C 106.308594 187.828125 105.640625 188.5625 104.941406 189.261719 C 104.238281 189.964844 103.503906 190.628906 102.738281 191.257812 C 101.972656 191.886719 101.175781 192.476562 100.351562 193.027344 C 99.527344 193.582031 98.675781 194.089844 97.800781 194.558594 C 96.925781 195.023438 96.03125 195.449219 95.113281 195.828125 C 94.195312 196.207031 93.265625 196.542969 92.316406 196.828125 C 91.367188 197.117188 90.40625 197.359375 89.429688 197.550781 C 88.457031 197.746094 87.476562 197.890625 86.492188 197.988281 C 85.503906 198.085938 84.515625 198.132812 83.523438 198.132812 C 82.53125 198.132812 81.539062 198.085938 80.554688 197.988281 C 79.566406 197.890625 78.585938 197.746094 77.613281 197.550781 C 76.640625 197.359375 75.679688 197.117188 74.730469 196.828125 C 73.78125 196.542969 72.847656 196.207031 71.929688 195.828125 C 71.015625 195.449219 70.117188 195.023438 69.242188 194.558594 C 68.367188 194.089844 67.519531 193.582031 66.695312 193.027344 C 65.867188 192.476562 65.074219 191.886719 64.304688 191.257812 C 63.539062 190.628906 62.804688 189.964844 62.105469 189.261719 C 61.402344 188.5625 60.738281 187.828125 60.109375 187.058594 C 59.476562 186.292969 58.886719 185.496094 58.335938 184.671875 C 57.785156 183.847656 57.277344 182.996094 56.808594 182.121094 C 56.339844 181.246094 55.917969 180.351562 55.539062 179.433594 C 55.15625 178.519531 54.824219 177.585938 54.535156 176.636719 C 54.25 175.6875 54.007812 174.726562 53.8125 173.753906 C 53.621094 172.78125 53.476562 171.800781 53.378906 170.8125 C 53.28125 169.824219 53.230469 168.835938 53.230469 167.84375 C 53.230469 166.851562 53.28125 165.863281 53.378906 164.875 C 53.476562 163.886719 53.621094 162.90625 53.8125 161.933594 C 54.007812 160.960938 54.25 160 54.535156 159.050781 C 54.824219 158.101562 55.15625 157.167969 55.539062 156.253906 C 55.917969 155.335938 56.339844 154.441406 56.808594 153.566406 C 57.277344 152.691406 57.785156 151.839844 58.335938 151.015625 C 58.886719 150.191406 59.476562 149.394531 60.109375 148.628906 C 60.738281 147.859375 61.402344 147.125 62.105469 146.425781 C 62.804688 145.722656 63.539062 145.058594 64.304688 144.429688 C 65.074219 143.800781 65.867188 143.210938 66.695312 142.660156 C 67.519531 142.105469 68.367188 141.597656 69.242188 141.128906 C 70.117188 140.664062 71.015625 140.238281 71.929688 139.859375 C 72.847656 139.480469 73.78125 139.144531 74.730469 138.859375 C 75.679688 138.570312 76.640625 138.328125 77.613281 138.136719 C 78.585938 137.941406 79.566406 137.796875 80.554688 137.699219 C 81.539062 137.601562 82.53125 137.554688 83.523438 137.554688 C 84.515625 137.554688 85.503906 137.601562 86.492188 137.699219 C 87.476562 137.796875 88.457031 137.941406 89.429688 138.136719 C 90.40625 138.328125 91.367188 138.570312 92.316406 138.859375 C 93.265625 139.144531 94.195312 139.480469 95.113281 139.859375 C 96.03125 140.238281 96.925781 140.664062 97.800781 141.128906 C 98.675781 141.597656 99.527344 142.105469 100.351562 142.660156 C 101.175781 143.210938 101.972656 143.800781 102.738281 144.429688 C 103.503906 145.058594 104.238281 145.722656 104.941406 146.425781 C 105.640625 147.125 106.308594 147.859375 106.9375 148.628906 C 107.566406 149.394531 108.15625 150.191406 108.707031 151.015625 C 109.257812 151.839844 109.769531 152.691406 110.234375 153.566406 C 110.703125 154.441406 111.125 155.335938 111.507812 156.253906 C 111.886719 157.167969 112.21875 158.101562 112.507812 159.050781 C 112.796875 160 113.035156 160.960938 113.230469 161.933594 C 113.421875 162.90625 113.570312 163.886719 113.667969 164.875 C 113.761719 165.863281 113.8125 166.851562 113.8125 167.84375 Z M 113.8125 167.84375 " fill-opacity="1" fill-rule="nonzero"/></g><g clip-path="url(#494e083838)"><path fill="#ffffff" d="M 129.0625 162.371094 C 129.0625 163.605469 129 164.839844 128.878906 166.070312 C 128.757812 167.300781 128.578125 168.523438 128.335938 169.738281 C 128.09375 170.949219 127.792969 172.148438 127.433594 173.332031 C 127.074219 174.515625 126.660156 175.679688 126.1875 176.824219 C 125.714844 177.964844 125.183594 179.082031 124.601562 180.171875 C 124.019531 181.265625 123.382812 182.324219 122.695312 183.351562 C 122.007812 184.382812 121.273438 185.375 120.488281 186.328125 C 119.703125 187.285156 118.875 188.203125 118 189.078125 C 117.125 189.949219 116.207031 190.78125 115.253906 191.566406 C 114.296875 192.351562 113.304688 193.085938 112.277344 193.773438 C 111.246094 194.460938 110.1875 195.097656 109.097656 195.679688 C 108.003906 196.261719 106.890625 196.789062 105.746094 197.261719 C 104.601562 197.738281 103.441406 198.152344 102.257812 198.511719 C 101.074219 198.871094 99.875 199.171875 98.660156 199.414062 C 97.449219 199.652344 96.226562 199.835938 94.996094 199.957031 C 93.761719 200.078125 92.527344 200.136719 91.292969 200.136719 C 90.054688 200.136719 88.820312 200.078125 87.589844 199.957031 C 86.359375 199.835938 85.136719 199.652344 83.921875 199.414062 C 82.710938 199.171875 81.511719 198.871094 80.328125 198.511719 C 79.144531 198.152344 77.980469 197.738281 76.839844 197.261719 C 75.695312 196.789062 74.578125 196.261719 73.488281 195.679688 C 72.398438 195.097656 71.335938 194.460938 70.308594 193.773438 C 69.28125 193.085938 68.289062 192.351562 67.332031 191.566406 C 66.375 190.78125 65.460938 189.949219 64.585938 189.078125 C 63.710938 188.203125 62.882812 187.285156 62.097656 186.328125 C 61.3125 185.375 60.574219 184.382812 59.886719 183.351562 C 59.199219 182.324219 58.566406 181.265625 57.984375 180.171875 C 57.398438 179.082031 56.871094 177.964844 56.398438 176.824219 C 55.925781 175.679688 55.507812 174.515625 55.148438 173.332031 C 54.789062 172.148438 54.488281 170.949219 54.25 169.738281 C 54.007812 168.523438 53.824219 167.300781 53.703125 166.070312 C 53.582031 164.839844 53.523438 163.605469 53.523438 162.371094 C 53.523438 161.132812 53.582031 159.898438 53.703125 158.667969 C 53.824219 157.4375 54.007812 156.214844 54.25 155 C 54.488281 153.789062 54.789062 152.589844 55.148438 151.40625 C 55.507812 150.222656 55.925781 149.058594 56.398438 147.914062 C 56.871094 146.773438 57.398438 145.65625 57.984375 144.566406 C 58.566406 143.472656 59.199219 142.414062 59.886719 141.386719 C 60.574219 140.355469 61.3125 139.363281 62.097656 138.410156 C 62.882812 137.453125 63.710938 136.539062 64.585938 135.664062 C 65.460938 134.789062 66.375 133.957031 67.332031 133.171875 C 68.289062 132.386719 69.28125 131.652344 70.308594 130.964844 C 71.335938 130.277344 72.398438 129.644531 73.488281 129.058594 C 74.578125 128.476562 75.695312 127.949219 76.839844 127.476562 C 77.980469 127 79.144531 126.585938 80.328125 126.226562 C 81.511719 125.867188 82.710938 125.566406 83.921875 125.324219 C 85.136719 125.085938 86.359375 124.902344 87.589844 124.78125 C 88.820312 124.660156 90.054688 124.601562 91.292969 124.601562 C 92.527344 124.601562 93.761719 124.660156 94.996094 124.78125 C 96.226562 124.902344 97.449219 125.085938 98.660156 125.324219 C 99.875 125.566406 101.074219 125.867188 102.257812 126.226562 C 103.441406 126.585938 104.601562 127 105.746094 127.476562 C 106.890625 127.949219 108.003906 128.476562 109.097656 129.058594 C 110.1875 129.644531 111.246094 130.277344 112.277344 130.964844 C 113.304688 131.652344 114.296875 132.386719 115.253906 133.171875 C 116.207031 133.957031 117.125 134.789062 118 135.664062 C 118.875 136.539062 119.703125 137.453125 120.488281 138.410156 C 121.273438 139.363281 122.007812 140.355469 122.695312 141.386719 C 123.382812 142.414062 124.019531 143.472656 124.601562 144.566406 C 125.183594 145.65625 125.714844 146.773438 126.1875 147.914062 C 126.660156 149.058594 127.074219 150.222656 127.433594 151.40625 C 127.792969 152.589844 128.09375 153.789062 128.335938 155 C 128.578125 156.214844 128.757812 157.4375 128.878906 158.667969 C 129 159.898438 129.0625 161.132812 129.0625 162.371094 Z M 129.0625 162.371094 " fill-opacity="1" fill-rule="nonzero"/></g></svg>