<svg xmlns="http://www.w3.org/2000/svg" xmlns:xlink="http://www.w3.org/1999/xlink" width="238" zoomAndPan="magnify" viewBox="0 0 178.5 249.749984" height="333" preserveAspectRatio="xMidYMid meet" version="1.0"><defs><clipPath id="fe28da5383"><path d="M 0 0.222656 L 178 0.222656 L 178 249.277344 L 0 249.277344 Z M 0 0.222656 " clip-rule="nonzero"/></clipPath><clipPath id="00758ab9dc"><path d="M 31 78 L 146.820312 78 L 146.820312 171.253906 L 31 171.253906 Z M 31 78 " clip-rule="nonzero"/></clipPath></defs><g clip-path="url(#fe28da5383)"></g><g clip-path="url(#00758ab9dc)"><path fill="#ffffff" d="M 134.53125 111.042969 L 140.609375 145.21875 C 141.1875 148.476562 138.871094 151.011719 131.710938 152.820312 L 101.988281 160.207031 C 99.457031 163.03125 98.664062 170.632812 100.832031 171.140625 C 100.832031 171.140625 124.988281 168.898438 137.570312 167.808594 C 140.535156 167.519531 145.089844 163.25 145.234375 160.136719 L 146.828125 118.789062 Z M 113.273438 152.097656 L 104.738281 109.304688 L 107.921875 108.582031 L 117.105469 150.144531 C 117.683594 152.675781 137.570312 148.765625 137.0625 146.015625 L 127.589844 92.433594 C 127.085938 89.609375 121.152344 78.894531 119.058594 79.183594 L 107.847656 80.921875 C 105.097656 81.355469 104.375 84.46875 100.542969 85.191406 C 97.144531 85.84375 92.660156 77.808594 89.625 78.460938 L 78.414062 80.992188 C 75.304688 81.71875 75.160156 88.667969 71.761719 89.609375 C 68.289062 90.625 66.046875 87.726562 63.589844 88.453125 L 54.839844 90.984375 C 51.296875 92 51.222656 100.179688 47.824219 101.628906 C 44.714844 102.933594 42.039062 100.6875 39.722656 102.207031 L 32.566406 106.914062 C 30.902344 107.929688 31.769531 119.585938 32.636719 121.832031 L 46.011719 159.195312 C 46.734375 161.222656 61.632812 157.671875 61.125 155.71875 L 51.796875 120.960938 L 54.980469 120.238281 L 66.1875 161.511719 C 66.769531 163.753906 85.933594 159.699219 85.425781 157.457031 C 82.316406 143.480469 76.167969 115.605469 76.167969 115.605469 L 79.351562 114.878906 L 89.257812 157.382812 C 89.835938 159.699219 113.847656 154.777344 113.269531 152.097656 Z M 113.273438 152.097656 " fill-opacity="1" fill-rule="nonzero"/></g></svg>